# xmcd
#
# Track frame offsets:
#	150
#	13221
#	26160
#	40602
#	54998
#	69548
#	90168
#	108795
#	129841
#	143934
#	160914
#	179375
#	205738
#	220395
#	231632
#	249327
#	268905
#
# Disc length: 3842 seconds
#
# Revision: 1
# Processed by: cddbd v1.5.1PL0 Copyright (c) Steve Scherf et al.
# Submitted via: audiograbber 1.83.01
#
DISCID=ec0f0011
DTITLE=Various Artist - Buffalo Records Label Sampler Vol.1
DYEAR=1900
DGENRE=
TTITLE0=Asylum Street Spankers - Some Of There Days
TTITLE1=Hot Club of Cowtown - I Had Someone Else
TTITLE2=Stanley Smith - Sweet Butterfly
TTITLE3=Dave Biller - 12th Year
TTITLE4=Ryan Adams - My Winding Wheel
TTITLE5=TorCH - Dindi
TTITLE6=Jazz Pharaohs - Old Man Time
TTITLE7=String Cheese Incident - Search
TTITLE8=Keller Williams - Love Handles
TTITLE9=Texas Trumpets - Sweet Spot
TTITLE10=Asylum Street Spankers - Lawd, You Make the Night Too Long
TTITLE11=Bo-Keys - Coming Home Baby
TTITLE12=TorCH - Peel Me a Grape
TTITLE13=Janet Klein - I Like You
TTITLE14=Hot Club of Cowtown - I Can't Give You Anything But Love, Baby
TTITLE15=Stanley Smith - Up From the Bottom
TTITLE16=Asylum Street Spankers - Hick Hop
EXTD=
EXTT0=
EXTT1=
EXTT2=
EXTT3=
EXTT4=
EXTT5=
EXTT6=
EXTT7=
EXTT8=
EXTT9=
EXTT10=
EXTT11=
EXTT12=
EXTT13=
EXTT14=
EXTT15=
EXTT16=
PLAYORDER=
